<?xml version="1.0" encoding="utf-8" standalone="no"?>
<!DOCTYPE svg PUBLIC "-//W3C//DTD SVG 1.1//EN"
  "http://www.w3.org/Graphics/SVG/1.1/DTD/svg11.dtd">
<svg xmlns:xlink="http://www.w3.org/1999/xlink" width="432pt" height="288pt" viewBox="0 0 432 288" xmlns="http://www.w3.org/2000/svg" version="1.1">
 <metadata>
  <rdf:RDF xmlns:dc="http://purl.org/dc/elements/1.1/" xmlns:cc="http://creativecommons.org/ns#" xmlns:rdf="http://www.w3.org/1999/02/22-rdf-syntax-ns#">
   <cc:Work>
    <dc:type rdf:resource="http://purl.org/dc/dcmitype/StillImage"/>
    <dc:date>2025-06-18T10:52:30.392539</dc:date>
    <dc:format>image/svg+xml</dc:format>
    <dc:creator>
     <cc:Agent>
      <dc:title>Matplotlib v3.8.2, https://matplotlib.org/</dc:title>
     </cc:Agent>
    </dc:creator>
   </cc:Work>
  </rdf:RDF>
 </metadata>
 <defs>
  <style type="text/css">*{stroke-linejoin: round; stroke-linecap: butt}</style>
 </defs>
 <g id="figure_1">
  <g id="patch_1">
   <path d="M 0 288 
L 432 288 
L 432 0 
L 0 0 
z
" style="fill: #ffffff"/>
  </g>
  <g id="axes_1">
   <g id="patch_2">
    <path d="M 54 256.32 
L 388.8 256.32 
L 388.8 34.56 
L 54 34.56 
z
" style="fill: #ffffff"/>
   </g>
   <g id="matplotlib.axis_1">
    <g id="xtick_1">
     <g id="line2d_1">
      <path d="M 69.218182 256.32 
L 69.218182 34.56 
" clip-path="url(#p0464905847)" style="fill: none; stroke-dasharray: 2.96,1.28; stroke-dashoffset: 0; stroke: #b0b0b0; stroke-width: 0.8"/>
     </g>
     <g id="line2d_2">
      <defs>
       <path id="me93cc744a6" d="M 0 0 
L 0 3.5 
" style="stroke: #000000; stroke-width: 0.8"/>
      </defs>
      <g>
       <use xlink:href="#me93cc744a6" x="69.218182" y="256.32" style="stroke: #000000; stroke-width: 0.8"/>
      </g>
     </g>
     <g id="text_1">
      <!-- 0.0 -->
      <g transform="translate(61.266619 270.918437) scale(0.1 -0.1)">
       <defs>
        <path id="DejaVuSans-30" d="M 2034 4250 
Q 1547 4250 1301 3770 
Q 1056 3291 1056 2328 
Q 1056 1369 1301 889 
Q 1547 409 2034 409 
Q 2525 409 2770 889 
Q 3016 1369 3016 2328 
Q 3016 3291 2770 3770 
Q 2525 4250 2034 4250 
z
M 2034 4750 
Q 2819 4750 3233 4129 
Q 3647 3509 3647 2328 
Q 3647 1150 3233 529 
Q 2819 -91 2034 -91 
Q 1250 -91 836 529 
Q 422 1150 422 2328 
Q 422 3509 836 4129 
Q 1250 4750 2034 4750 
z
" transform="scale(0.015625)"/>
        <path id="DejaVuSans-2e" d="M 684 794 
L 1344 794 
L 1344 0 
L 684 0 
L 684 794 
z
" transform="scale(0.015625)"/>
       </defs>
       <use xlink:href="#DejaVuSans-30"/>
       <use xlink:href="#DejaVuSans-2e" x="63.623047"/>
       <use xlink:href="#DejaVuSans-30" x="95.410156"/>
      </g>
     </g>
    </g>
    <g id="xtick_2">
     <g id="line2d_3">
      <path d="M 107.263636 256.32 
L 107.263636 34.56 
" clip-path="url(#p0464905847)" style="fill: none; stroke-dasharray: 2.96,1.28; stroke-dashoffset: 0; stroke: #b0b0b0; stroke-width: 0.8"/>
     </g>
     <g id="line2d_4">
      <g>
       <use xlink:href="#me93cc744a6" x="107.263636" y="256.32" style="stroke: #000000; stroke-width: 0.8"/>
      </g>
     </g>
     <g id="text_2">
      <!-- 0.5 -->
      <g transform="translate(99.312074 270.918437) scale(0.1 -0.1)">
       <defs>
        <path id="DejaVuSans-35" d="M 691 4666 
L 3169 4666 
L 3169 4134 
L 1269 4134 
L 1269 2991 
Q 1406 3038 1543 3061 
Q 1681 3084 1819 3084 
Q 2600 3084 3056 2656 
Q 3513 2228 3513 1497 
Q 3513 744 3044 326 
Q 2575 -91 1722 -91 
Q 1428 -91 1123 -41 
Q 819 9 494 109 
L 494 744 
Q 775 591 1075 516 
Q 1375 441 1709 441 
Q 2250 441 2565 725 
Q 2881 1009 2881 1497 
Q 2881 1984 2565 2268 
Q 2250 2553 1709 2553 
Q 1456 2553 1204 2497 
Q 953 2441 691 2322 
L 691 4666 
z
" transform="scale(0.015625)"/>
       </defs>
       <use xlink:href="#DejaVuSans-30"/>
       <use xlink:href="#DejaVuSans-2e" x="63.623047"/>
       <use xlink:href="#DejaVuSans-35" x="95.410156"/>
      </g>
     </g>
    </g>
    <g id="xtick_3">
     <g id="line2d_5">
      <path d="M 145.309091 256.32 
L 145.309091 34.56 
" clip-path="url(#p0464905847)" style="fill: none; stroke-dasharray: 2.96,1.28; stroke-dashoffset: 0; stroke: #b0b0b0; stroke-width: 0.8"/>
     </g>
     <g id="line2d_6">
      <g>
       <use xlink:href="#me93cc744a6" x="145.309091" y="256.32" style="stroke: #000000; stroke-width: 0.8"/>
      </g>
     </g>
     <g id="text_3">
      <!-- 1.0 -->
      <g transform="translate(137.357528 270.918437) scale(0.1 -0.1)">
       <defs>
        <path id="DejaVuSans-31" d="M 794 531 
L 1825 531 
L 1825 4091 
L 703 3866 
L 703 4441 
L 1819 4666 
L 2450 4666 
L 2450 531 
L 3481 531 
L 3481 0 
L 794 0 
L 794 531 
z
" transform="scale(0.015625)"/>
       </defs>
       <use xlink:href="#DejaVuSans-31"/>
       <use xlink:href="#DejaVuSans-2e" x="63.623047"/>
       <use xlink:href="#DejaVuSans-30" x="95.410156"/>
      </g>
     </g>
    </g>
    <g id="xtick_4">
     <g id="line2d_7">
      <path d="M 183.354545 256.32 
L 183.354545 34.56 
" clip-path="url(#p0464905847)" style="fill: none; stroke-dasharray: 2.96,1.28; stroke-dashoffset: 0; stroke: #b0b0b0; stroke-width: 0.8"/>
     </g>
     <g id="line2d_8">
      <g>
       <use xlink:href="#me93cc744a6" x="183.354545" y="256.32" style="stroke: #000000; stroke-width: 0.8"/>
      </g>
     </g>
     <g id="text_4">
      <!-- 1.5 -->
      <g transform="translate(175.402983 270.918437) scale(0.1 -0.1)">
       <use xlink:href="#DejaVuSans-31"/>
       <use xlink:href="#DejaVuSans-2e" x="63.623047"/>
       <use xlink:href="#DejaVuSans-35" x="95.410156"/>
      </g>
     </g>
    </g>
    <g id="xtick_5">
     <g id="line2d_9">
      <path d="M 221.4 256.32 
L 221.4 34.56 
" clip-path="url(#p0464905847)" style="fill: none; stroke-dasharray: 2.96,1.28; stroke-dashoffset: 0; stroke: #b0b0b0; stroke-width: 0.8"/>
     </g>
     <g id="line2d_10">
      <g>
       <use xlink:href="#me93cc744a6" x="221.4" y="256.32" style="stroke: #000000; stroke-width: 0.8"/>
      </g>
     </g>
     <g id="text_5">
      <!-- 2.0 -->
      <g transform="translate(213.448438 270.918437) scale(0.1 -0.1)">
       <defs>
        <path id="DejaVuSans-32" d="M 1228 531 
L 3431 531 
L 3431 0 
L 469 0 
L 469 531 
Q 828 903 1448 1529 
Q 2069 2156 2228 2338 
Q 2531 2678 2651 2914 
Q 2772 3150 2772 3378 
Q 2772 3750 2511 3984 
Q 2250 4219 1831 4219 
Q 1534 4219 1204 4116 
Q 875 4013 500 3803 
L 500 4441 
Q 881 4594 1212 4672 
Q 1544 4750 1819 4750 
Q 2544 4750 2975 4387 
Q 3406 4025 3406 3419 
Q 3406 3131 3298 2873 
Q 3191 2616 2906 2266 
Q 2828 2175 2409 1742 
Q 1991 1309 1228 531 
z
" transform="scale(0.015625)"/>
       </defs>
       <use xlink:href="#DejaVuSans-32"/>
       <use xlink:href="#DejaVuSans-2e" x="63.623047"/>
       <use xlink:href="#DejaVuSans-30" x="95.410156"/>
      </g>
     </g>
    </g>
    <g id="xtick_6">
     <g id="line2d_11">
      <path d="M 259.445455 256.32 
L 259.445455 34.56 
" clip-path="url(#p0464905847)" style="fill: none; stroke-dasharray: 2.96,1.28; stroke-dashoffset: 0; stroke: #b0b0b0; stroke-width: 0.8"/>
     </g>
     <g id="line2d_12">
      <g>
       <use xlink:href="#me93cc744a6" x="259.445455" y="256.32" style="stroke: #000000; stroke-width: 0.8"/>
      </g>
     </g>
     <g id="text_6">
      <!-- 2.5 -->
      <g transform="translate(251.493892 270.918437) scale(0.1 -0.1)">
       <use xlink:href="#DejaVuSans-32"/>
       <use xlink:href="#DejaVuSans-2e" x="63.623047"/>
       <use xlink:href="#DejaVuSans-35" x="95.410156"/>
      </g>
     </g>
    </g>
    <g id="xtick_7">
     <g id="line2d_13">
      <path d="M 297.490909 256.32 
L 297.490909 34.56 
" clip-path="url(#p0464905847)" style="fill: none; stroke-dasharray: 2.96,1.28; stroke-dashoffset: 0; stroke: #b0b0b0; stroke-width: 0.8"/>
     </g>
     <g id="line2d_14">
      <g>
       <use xlink:href="#me93cc744a6" x="297.490909" y="256.32" style="stroke: #000000; stroke-width: 0.8"/>
      </g>
     </g>
     <g id="text_7">
      <!-- 3.0 -->
      <g transform="translate(289.539347 270.918437) scale(0.1 -0.1)">
       <defs>
        <path id="DejaVuSans-33" d="M 2597 2516 
Q 3050 2419 3304 2112 
Q 3559 1806 3559 1356 
Q 3559 666 3084 287 
Q 2609 -91 1734 -91 
Q 1441 -91 1130 -33 
Q 819 25 488 141 
L 488 750 
Q 750 597 1062 519 
Q 1375 441 1716 441 
Q 2309 441 2620 675 
Q 2931 909 2931 1356 
Q 2931 1769 2642 2001 
Q 2353 2234 1838 2234 
L 1294 2234 
L 1294 2753 
L 1863 2753 
Q 2328 2753 2575 2939 
Q 2822 3125 2822 3475 
Q 2822 3834 2567 4026 
Q 2313 4219 1838 4219 
Q 1578 4219 1281 4162 
Q 984 4106 628 3988 
L 628 4550 
Q 988 4650 1302 4700 
Q 1616 4750 1894 4750 
Q 2613 4750 3031 4423 
Q 3450 4097 3450 3541 
Q 3450 3153 3228 2886 
Q 3006 2619 2597 2516 
z
" transform="scale(0.015625)"/>
       </defs>
       <use xlink:href="#DejaVuSans-33"/>
       <use xlink:href="#DejaVuSans-2e" x="63.623047"/>
       <use xlink:href="#DejaVuSans-30" x="95.410156"/>
      </g>
     </g>
    </g>
    <g id="xtick_8">
     <g id="line2d_15">
      <path d="M 335.536364 256.32 
L 335.536364 34.56 
" clip-path="url(#p0464905847)" style="fill: none; stroke-dasharray: 2.96,1.28; stroke-dashoffset: 0; stroke: #b0b0b0; stroke-width: 0.8"/>
     </g>
     <g id="line2d_16">
      <g>
       <use xlink:href="#me93cc744a6" x="335.536364" y="256.32" style="stroke: #000000; stroke-width: 0.8"/>
      </g>
     </g>
     <g id="text_8">
      <!-- 3.5 -->
      <g transform="translate(327.584801 270.918437) scale(0.1 -0.1)">
       <use xlink:href="#DejaVuSans-33"/>
       <use xlink:href="#DejaVuSans-2e" x="63.623047"/>
       <use xlink:href="#DejaVuSans-35" x="95.410156"/>
      </g>
     </g>
    </g>
    <g id="xtick_9">
     <g id="line2d_17">
      <path d="M 373.581818 256.32 
L 373.581818 34.56 
" clip-path="url(#p0464905847)" style="fill: none; stroke-dasharray: 2.96,1.28; stroke-dashoffset: 0; stroke: #b0b0b0; stroke-width: 0.8"/>
     </g>
     <g id="line2d_18">
      <g>
       <use xlink:href="#me93cc744a6" x="373.581818" y="256.32" style="stroke: #000000; stroke-width: 0.8"/>
      </g>
     </g>
     <g id="text_9">
      <!-- 4.0 -->
      <g transform="translate(365.630256 270.918437) scale(0.1 -0.1)">
       <defs>
        <path id="DejaVuSans-34" d="M 2419 4116 
L 825 1625 
L 2419 1625 
L 2419 4116 
z
M 2253 4666 
L 3047 4666 
L 3047 1625 
L 3713 1625 
L 3713 1100 
L 3047 1100 
L 3047 0 
L 2419 0 
L 2419 1100 
L 313 1100 
L 313 1709 
L 2253 4666 
z
" transform="scale(0.015625)"/>
       </defs>
       <use xlink:href="#DejaVuSans-34"/>
       <use xlink:href="#DejaVuSans-2e" x="63.623047"/>
       <use xlink:href="#DejaVuSans-30" x="95.410156"/>
      </g>
     </g>
    </g>
    <g id="text_10">
     <!-- MJO Magnitude -->
     <g transform="translate(183.596094 284.596563) scale(0.1 -0.1)">
      <defs>
       <path id="DejaVuSans-4d" d="M 628 4666 
L 1569 4666 
L 2759 1491 
L 3956 4666 
L 4897 4666 
L 4897 0 
L 4281 0 
L 4281 4097 
L 3078 897 
L 2444 897 
L 1241 4097 
L 1241 0 
L 628 0 
L 628 4666 
z
" transform="scale(0.015625)"/>
       <path id="DejaVuSans-4a" d="M 628 4666 
L 1259 4666 
L 1259 325 
Q 1259 -519 939 -900 
Q 619 -1281 -91 -1281 
L -331 -1281 
L -331 -750 
L -134 -750 
Q 284 -750 456 -515 
Q 628 -281 628 325 
L 628 4666 
z
" transform="scale(0.015625)"/>
       <path id="DejaVuSans-4f" d="M 2522 4238 
Q 1834 4238 1429 3725 
Q 1025 3213 1025 2328 
Q 1025 1447 1429 934 
Q 1834 422 2522 422 
Q 3209 422 3611 934 
Q 4013 1447 4013 2328 
Q 4013 3213 3611 3725 
Q 3209 4238 2522 4238 
z
M 2522 4750 
Q 3503 4750 4090 4092 
Q 4678 3434 4678 2328 
Q 4678 1225 4090 567 
Q 3503 -91 2522 -91 
Q 1538 -91 948 565 
Q 359 1222 359 2328 
Q 359 3434 948 4092 
Q 1538 4750 2522 4750 
z
" transform="scale(0.015625)"/>
       <path id="DejaVuSans-20" transform="scale(0.015625)"/>
       <path id="DejaVuSans-61" d="M 2194 1759 
Q 1497 1759 1228 1600 
Q 959 1441 959 1056 
Q 959 750 1161 570 
Q 1363 391 1709 391 
Q 2188 391 2477 730 
Q 2766 1069 2766 1631 
L 2766 1759 
L 2194 1759 
z
M 3341 1997 
L 3341 0 
L 2766 0 
L 2766 531 
Q 2569 213 2275 61 
Q 1981 -91 1556 -91 
Q 1019 -91 701 211 
Q 384 513 384 1019 
Q 384 1609 779 1909 
Q 1175 2209 1959 2209 
L 2766 2209 
L 2766 2266 
Q 2766 2663 2505 2880 
Q 2244 3097 1772 3097 
Q 1472 3097 1187 3025 
Q 903 2953 641 2809 
L 641 3341 
Q 956 3463 1253 3523 
Q 1550 3584 1831 3584 
Q 2591 3584 2966 3190 
Q 3341 2797 3341 1997 
z
" transform="scale(0.015625)"/>
       <path id="DejaVuSans-67" d="M 2906 1791 
Q 2906 2416 2648 2759 
Q 2391 3103 1925 3103 
Q 1463 3103 1205 2759 
Q 947 2416 947 1791 
Q 947 1169 1205 825 
Q 1463 481 1925 481 
Q 2391 481 2648 825 
Q 2906 1169 2906 1791 
z
M 3481 434 
Q 3481 -459 3084 -895 
Q 2688 -1331 1869 -1331 
Q 1566 -1331 1297 -1286 
Q 1028 -1241 775 -1147 
L 775 -588 
Q 1028 -725 1275 -790 
Q 1522 -856 1778 -856 
Q 2344 -856 2625 -561 
Q 2906 -266 2906 331 
L 2906 616 
Q 2728 306 2450 153 
Q 2172 0 1784 0 
Q 1141 0 747 490 
Q 353 981 353 1791 
Q 353 2603 747 3093 
Q 1141 3584 1784 3584 
Q 2172 3584 2450 3431 
Q 2728 3278 2906 2969 
L 2906 3500 
L 3481 3500 
L 3481 434 
z
" transform="scale(0.015625)"/>
       <path id="DejaVuSans-6e" d="M 3513 2113 
L 3513 0 
L 2938 0 
L 2938 2094 
Q 2938 2591 2744 2837 
Q 2550 3084 2163 3084 
Q 1697 3084 1428 2787 
Q 1159 2491 1159 1978 
L 1159 0 
L 581 0 
L 581 3500 
L 1159 3500 
L 1159 2956 
Q 1366 3272 1645 3428 
Q 1925 3584 2291 3584 
Q 2894 3584 3203 3211 
Q 3513 2838 3513 2113 
z
" transform="scale(0.015625)"/>
       <path id="DejaVuSans-69" d="M 603 3500 
L 1178 3500 
L 1178 0 
L 603 0 
L 603 3500 
z
M 603 4863 
L 1178 4863 
L 1178 4134 
L 603 4134 
L 603 4863 
z
" transform="scale(0.015625)"/>
       <path id="DejaVuSans-74" d="M 1172 4494 
L 1172 3500 
L 2356 3500 
L 2356 3053 
L 1172 3053 
L 1172 1153 
Q 1172 725 1289 603 
Q 1406 481 1766 481 
L 2356 481 
L 2356 0 
L 1766 0 
Q 1100 0 847 248 
Q 594 497 594 1153 
L 594 3053 
L 172 3053 
L 172 3500 
L 594 3500 
L 594 4494 
L 1172 4494 
z
" transform="scale(0.015625)"/>
       <path id="DejaVuSans-75" d="M 544 1381 
L 544 3500 
L 1119 3500 
L 1119 1403 
Q 1119 906 1312 657 
Q 1506 409 1894 409 
Q 2359 409 2629 706 
Q 2900 1003 2900 1516 
L 2900 3500 
L 3475 3500 
L 3475 0 
L 2900 0 
L 2900 538 
Q 2691 219 2414 64 
Q 2138 -91 1772 -91 
Q 1169 -91 856 284 
Q 544 659 544 1381 
z
M 1991 3584 
L 1991 3584 
z
" transform="scale(0.015625)"/>
       <path id="DejaVuSans-64" d="M 2906 2969 
L 2906 4863 
L 3481 4863 
L 3481 0 
L 2906 0 
L 2906 525 
Q 2725 213 2448 61 
Q 2172 -91 1784 -91 
Q 1150 -91 751 415 
Q 353 922 353 1747 
Q 353 2572 751 3078 
Q 1150 3584 1784 3584 
Q 2172 3584 2448 3432 
Q 2725 3281 2906 2969 
z
M 947 1747 
Q 947 1113 1208 752 
Q 1469 391 1925 391 
Q 2381 391 2643 752 
Q 2906 1113 2906 1747 
Q 2906 2381 2643 2742 
Q 2381 3103 1925 3103 
Q 1469 3103 1208 2742 
Q 947 2381 947 1747 
z
" transform="scale(0.015625)"/>
       <path id="DejaVuSans-65" d="M 3597 1894 
L 3597 1613 
L 953 1613 
Q 991 1019 1311 708 
Q 1631 397 2203 397 
Q 2534 397 2845 478 
Q 3156 559 3463 722 
L 3463 178 
Q 3153 47 2828 -22 
Q 2503 -91 2169 -91 
Q 1331 -91 842 396 
Q 353 884 353 1716 
Q 353 2575 817 3079 
Q 1281 3584 2069 3584 
Q 2775 3584 3186 3129 
Q 3597 2675 3597 1894 
z
M 3022 2063 
Q 3016 2534 2758 2815 
Q 2500 3097 2075 3097 
Q 1594 3097 1305 2825 
Q 1016 2553 972 2059 
L 3022 2063 
z
" transform="scale(0.015625)"/>
      </defs>
      <use xlink:href="#DejaVuSans-4d"/>
      <use xlink:href="#DejaVuSans-4a" x="86.279297"/>
      <use xlink:href="#DejaVuSans-4f" x="115.771484"/>
      <use xlink:href="#DejaVuSans-20" x="194.482422"/>
      <use xlink:href="#DejaVuSans-4d" x="226.269531"/>
      <use xlink:href="#DejaVuSans-61" x="312.548828"/>
      <use xlink:href="#DejaVuSans-67" x="373.828125"/>
      <use xlink:href="#DejaVuSans-6e" x="437.304688"/>
      <use xlink:href="#DejaVuSans-69" x="500.683594"/>
      <use xlink:href="#DejaVuSans-74" x="528.466797"/>
      <use xlink:href="#DejaVuSans-75" x="567.675781"/>
      <use xlink:href="#DejaVuSans-64" x="631.054688"/>
      <use xlink:href="#DejaVuSans-65" x="694.53125"/>
     </g>
    </g>
   </g>
   <g id="matplotlib.axis_2">
    <g id="ytick_1">
     <g id="line2d_19">
      <path d="M 54 256.32 
L 388.8 256.32 
" clip-path="url(#p0464905847)" style="fill: none; stroke-dasharray: 2.96,1.28; stroke-dashoffset: 0; stroke: #b0b0b0; stroke-width: 0.8"/>
     </g>
     <g id="line2d_20">
      <defs>
       <path id="me86585b8a5" d="M 0 0 
L -3.5 0 
" style="stroke: #000000; stroke-width: 0.8"/>
      </defs>
      <g>
       <use xlink:href="#me86585b8a5" x="54" y="256.32" style="stroke: #000000; stroke-width: 0.8"/>
      </g>
     </g>
     <g id="text_11">
      <!-- 0 -->
      <g transform="translate(40.6375 260.119219) scale(0.1 -0.1)">
       <use xlink:href="#DejaVuSans-30"/>
      </g>
     </g>
    </g>
    <g id="ytick_2">
     <g id="line2d_21">
      <path d="M 54 216.843364 
L 388.8 216.843364 
" clip-path="url(#p0464905847)" style="fill: none; stroke-dasharray: 2.96,1.28; stroke-dashoffset: 0; stroke: #b0b0b0; stroke-width: 0.8"/>
     </g>
     <g id="line2d_22">
      <g>
       <use xlink:href="#me86585b8a5" x="54" y="216.843364" style="stroke: #000000; stroke-width: 0.8"/>
      </g>
     </g>
     <g id="text_12">
      <!-- 20 -->
      <g transform="translate(34.275 220.642583) scale(0.1 -0.1)">
       <use xlink:href="#DejaVuSans-32"/>
       <use xlink:href="#DejaVuSans-30" x="63.623047"/>
      </g>
     </g>
    </g>
    <g id="ytick_3">
     <g id="line2d_23">
      <path d="M 54 177.366729 
L 388.8 177.366729 
" clip-path="url(#p0464905847)" style="fill: none; stroke-dasharray: 2.96,1.28; stroke-dashoffset: 0; stroke: #b0b0b0; stroke-width: 0.8"/>
     </g>
     <g id="line2d_24">
      <g>
       <use xlink:href="#me86585b8a5" x="54" y="177.366729" style="stroke: #000000; stroke-width: 0.8"/>
      </g>
     </g>
     <g id="text_13">
      <!-- 40 -->
      <g transform="translate(34.275 181.165948) scale(0.1 -0.1)">
       <use xlink:href="#DejaVuSans-34"/>
       <use xlink:href="#DejaVuSans-30" x="63.623047"/>
      </g>
     </g>
    </g>
    <g id="ytick_4">
     <g id="line2d_25">
      <path d="M 54 137.890093 
L 388.8 137.890093 
" clip-path="url(#p0464905847)" style="fill: none; stroke-dasharray: 2.96,1.28; stroke-dashoffset: 0; stroke: #b0b0b0; stroke-width: 0.8"/>
     </g>
     <g id="line2d_26">
      <g>
       <use xlink:href="#me86585b8a5" x="54" y="137.890093" style="stroke: #000000; stroke-width: 0.8"/>
      </g>
     </g>
     <g id="text_14">
      <!-- 60 -->
      <g transform="translate(34.275 141.689312) scale(0.1 -0.1)">
       <defs>
        <path id="DejaVuSans-36" d="M 2113 2584 
Q 1688 2584 1439 2293 
Q 1191 2003 1191 1497 
Q 1191 994 1439 701 
Q 1688 409 2113 409 
Q 2538 409 2786 701 
Q 3034 994 3034 1497 
Q 3034 2003 2786 2293 
Q 2538 2584 2113 2584 
z
M 3366 4563 
L 3366 3988 
Q 3128 4100 2886 4159 
Q 2644 4219 2406 4219 
Q 1781 4219 1451 3797 
Q 1122 3375 1075 2522 
Q 1259 2794 1537 2939 
Q 1816 3084 2150 3084 
Q 2853 3084 3261 2657 
Q 3669 2231 3669 1497 
Q 3669 778 3244 343 
Q 2819 -91 2113 -91 
Q 1303 -91 875 529 
Q 447 1150 447 2328 
Q 447 3434 972 4092 
Q 1497 4750 2381 4750 
Q 2619 4750 2861 4703 
Q 3103 4656 3366 4563 
z
" transform="scale(0.015625)"/>
       </defs>
       <use xlink:href="#DejaVuSans-36"/>
       <use xlink:href="#DejaVuSans-30" x="63.623047"/>
      </g>
     </g>
    </g>
    <g id="ytick_5">
     <g id="line2d_27">
      <path d="M 54 98.413458 
L 388.8 98.413458 
" clip-path="url(#p0464905847)" style="fill: none; stroke-dasharray: 2.96,1.28; stroke-dashoffset: 0; stroke: #b0b0b0; stroke-width: 0.8"/>
     </g>
     <g id="line2d_28">
      <g>
       <use xlink:href="#me86585b8a5" x="54" y="98.413458" style="stroke: #000000; stroke-width: 0.8"/>
      </g>
     </g>
     <g id="text_15">
      <!-- 80 -->
      <g transform="translate(34.275 102.212677) scale(0.1 -0.1)">
       <defs>
        <path id="DejaVuSans-38" d="M 2034 2216 
Q 1584 2216 1326 1975 
Q 1069 1734 1069 1313 
Q 1069 891 1326 650 
Q 1584 409 2034 409 
Q 2484 409 2743 651 
Q 3003 894 3003 1313 
Q 3003 1734 2745 1975 
Q 2488 2216 2034 2216 
z
M 1403 2484 
Q 997 2584 770 2862 
Q 544 3141 544 3541 
Q 544 4100 942 4425 
Q 1341 4750 2034 4750 
Q 2731 4750 3128 4425 
Q 3525 4100 3525 3541 
Q 3525 3141 3298 2862 
Q 3072 2584 2669 2484 
Q 3125 2378 3379 2068 
Q 3634 1759 3634 1313 
Q 3634 634 3220 271 
Q 2806 -91 2034 -91 
Q 1263 -91 848 271 
Q 434 634 434 1313 
Q 434 1759 690 2068 
Q 947 2378 1403 2484 
z
M 1172 3481 
Q 1172 3119 1398 2916 
Q 1625 2713 2034 2713 
Q 2441 2713 2670 2916 
Q 2900 3119 2900 3481 
Q 2900 3844 2670 4047 
Q 2441 4250 2034 4250 
Q 1625 4250 1398 4047 
Q 1172 3844 1172 3481 
z
" transform="scale(0.015625)"/>
       </defs>
       <use xlink:href="#DejaVuSans-38"/>
       <use xlink:href="#DejaVuSans-30" x="63.623047"/>
      </g>
     </g>
    </g>
    <g id="ytick_6">
     <g id="line2d_29">
      <path d="M 54 58.936822 
L 388.8 58.936822 
" clip-path="url(#p0464905847)" style="fill: none; stroke-dasharray: 2.96,1.28; stroke-dashoffset: 0; stroke: #b0b0b0; stroke-width: 0.8"/>
     </g>
     <g id="line2d_30">
      <g>
       <use xlink:href="#me86585b8a5" x="54" y="58.936822" style="stroke: #000000; stroke-width: 0.8"/>
      </g>
     </g>
     <g id="text_16">
      <!-- 100 -->
      <g transform="translate(27.9125 62.736041) scale(0.1 -0.1)">
       <use xlink:href="#DejaVuSans-31"/>
       <use xlink:href="#DejaVuSans-30" x="63.623047"/>
       <use xlink:href="#DejaVuSans-30" x="127.246094"/>
      </g>
     </g>
    </g>
    <g id="text_17">
     <!-- Frequency -->
     <g transform="translate(21.832812 171.269688) rotate(-90) scale(0.1 -0.1)">
      <defs>
       <path id="DejaVuSans-46" d="M 628 4666 
L 3309 4666 
L 3309 4134 
L 1259 4134 
L 1259 2759 
L 3109 2759 
L 3109 2228 
L 1259 2228 
L 1259 0 
L 628 0 
L 628 4666 
z
" transform="scale(0.015625)"/>
       <path id="DejaVuSans-72" d="M 2631 2963 
Q 2534 3019 2420 3045 
Q 2306 3072 2169 3072 
Q 1681 3072 1420 2755 
Q 1159 2438 1159 1844 
L 1159 0 
L 581 0 
L 581 3500 
L 1159 3500 
L 1159 2956 
Q 1341 3275 1631 3429 
Q 1922 3584 2338 3584 
Q 2397 3584 2469 3576 
Q 2541 3569 2628 3553 
L 2631 2963 
z
" transform="scale(0.015625)"/>
       <path id="DejaVuSans-71" d="M 947 1747 
Q 947 1113 1208 752 
Q 1469 391 1925 391 
Q 2381 391 2643 752 
Q 2906 1113 2906 1747 
Q 2906 2381 2643 2742 
Q 2381 3103 1925 3103 
Q 1469 3103 1208 2742 
Q 947 2381 947 1747 
z
M 2906 525 
Q 2725 213 2448 61 
Q 2172 -91 1784 -91 
Q 1150 -91 751 415 
Q 353 922 353 1747 
Q 353 2572 751 3078 
Q 1150 3584 1784 3584 
Q 2172 3584 2448 3432 
Q 2725 3281 2906 2969 
L 2906 3500 
L 3481 3500 
L 3481 -1331 
L 2906 -1331 
L 2906 525 
z
" transform="scale(0.015625)"/>
       <path id="DejaVuSans-63" d="M 3122 3366 
L 3122 2828 
Q 2878 2963 2633 3030 
Q 2388 3097 2138 3097 
Q 1578 3097 1268 2742 
Q 959 2388 959 1747 
Q 959 1106 1268 751 
Q 1578 397 2138 397 
Q 2388 397 2633 464 
Q 2878 531 3122 666 
L 3122 134 
Q 2881 22 2623 -34 
Q 2366 -91 2075 -91 
Q 1284 -91 818 406 
Q 353 903 353 1747 
Q 353 2603 823 3093 
Q 1294 3584 2113 3584 
Q 2378 3584 2631 3529 
Q 2884 3475 3122 3366 
z
" transform="scale(0.015625)"/>
       <path id="DejaVuSans-79" d="M 2059 -325 
Q 1816 -950 1584 -1140 
Q 1353 -1331 966 -1331 
L 506 -1331 
L 506 -850 
L 844 -850 
Q 1081 -850 1212 -737 
Q 1344 -625 1503 -206 
L 1606 56 
L 191 3500 
L 800 3500 
L 1894 763 
L 2988 3500 
L 3597 3500 
L 2059 -325 
z
" transform="scale(0.015625)"/>
      </defs>
      <use xlink:href="#DejaVuSans-46"/>
      <use xlink:href="#DejaVuSans-72" x="50.269531"/>
      <use xlink:href="#DejaVuSans-65" x="89.132812"/>
      <use xlink:href="#DejaVuSans-71" x="150.65625"/>
      <use xlink:href="#DejaVuSans-75" x="214.132812"/>
      <use xlink:href="#DejaVuSans-65" x="277.511719"/>
      <use xlink:href="#DejaVuSans-6e" x="339.035156"/>
      <use xlink:href="#DejaVuSans-63" x="402.414062"/>
      <use xlink:href="#DejaVuSans-79" x="457.394531"/>
     </g>
    </g>
   </g>
   <g id="patch_3">
    <path d="M 69.218182 256.32 
L 76.827273 256.32 
L 76.827273 236.581682 
L 69.218182 236.581682 
z
" clip-path="url(#p0464905847)" style="fill: #0072b2"/>
   </g>
   <g id="patch_4">
    <path d="M 76.827273 256.32 
L 84.436364 256.32 
L 84.436364 228.686355 
L 76.827273 228.686355 
z
" clip-path="url(#p0464905847)" style="fill: #0072b2"/>
   </g>
   <g id="patch_5">
    <path d="M 84.436364 256.32 
L 92.045455 256.32 
L 92.045455 187.235888 
L 84.436364 187.235888 
z
" clip-path="url(#p0464905847)" style="fill: #0072b2"/>
   </g>
   <g id="patch_6">
    <path d="M 92.045455 256.32 
L 99.654545 256.32 
L 99.654545 193.157383 
L 92.045455 193.157383 
z
" clip-path="url(#p0464905847)" style="fill: #0072b2"/>
   </g>
   <g id="patch_7">
    <path d="M 99.654545 256.32 
L 107.263636 256.32 
L 107.263636 165.523738 
L 99.654545 165.523738 
z
" clip-path="url(#p0464905847)" style="fill: #0072b2"/>
   </g>
   <g id="patch_8">
    <path d="M 107.263636 256.32 
L 114.872727 256.32 
L 114.872727 137.890093 
L 107.263636 137.890093 
z
" clip-path="url(#p0464905847)" style="fill: #0072b2"/>
   </g>
   <g id="patch_9">
    <path d="M 114.872727 256.32 
L 122.481818 256.32 
L 122.481818 100.38729 
L 114.872727 100.38729 
z
" clip-path="url(#p0464905847)" style="fill: #0072b2"/>
   </g>
   <g id="patch_10">
    <path d="M 122.481818 256.32 
L 130.090909 256.32 
L 130.090909 131.968598 
L 122.481818 131.968598 
z
" clip-path="url(#p0464905847)" style="fill: #0072b2"/>
   </g>
   <g id="patch_11">
    <path d="M 130.090909 256.32 
L 137.7 256.32 
L 137.7 114.204112 
L 130.090909 114.204112 
z
" clip-path="url(#p0464905847)" style="fill: #0072b2"/>
   </g>
   <g id="patch_12">
    <path d="M 137.7 256.32 
L 145.309091 256.32 
L 145.309091 169.471402 
L 137.7 169.471402 
z
" clip-path="url(#p0464905847)" style="fill: #0072b2"/>
   </g>
   <g id="patch_13">
    <path d="M 145.309091 256.32 
L 152.918182 256.32 
L 152.918182 256.32 
L 145.309091 256.32 
z
" clip-path="url(#p0464905847)" style="fill: #0072b2"/>
   </g>
   <g id="patch_14">
    <path d="M 152.918182 256.32 
L 160.527273 256.32 
L 160.527273 256.32 
L 152.918182 256.32 
z
" clip-path="url(#p0464905847)" style="fill: #0072b2"/>
   </g>
   <g id="patch_15">
    <path d="M 160.527273 256.32 
L 168.136364 256.32 
L 168.136364 256.32 
L 160.527273 256.32 
z
" clip-path="url(#p0464905847)" style="fill: #0072b2"/>
   </g>
   <g id="patch_16">
    <path d="M 168.136364 256.32 
L 175.745455 256.32 
L 175.745455 256.32 
L 168.136364 256.32 
z
" clip-path="url(#p0464905847)" style="fill: #0072b2"/>
   </g>
   <g id="patch_17">
    <path d="M 175.745455 256.32 
L 183.354545 256.32 
L 183.354545 256.32 
L 175.745455 256.32 
z
" clip-path="url(#p0464905847)" style="fill: #0072b2"/>
   </g>
   <g id="patch_18">
    <path d="M 183.354545 256.32 
L 190.963636 256.32 
L 190.963636 256.32 
L 183.354545 256.32 
z
" clip-path="url(#p0464905847)" style="fill: #0072b2"/>
   </g>
   <g id="patch_19">
    <path d="M 190.963636 256.32 
L 198.572727 256.32 
L 198.572727 256.32 
L 190.963636 256.32 
z
" clip-path="url(#p0464905847)" style="fill: #0072b2"/>
   </g>
   <g id="patch_20">
    <path d="M 198.572727 256.32 
L 206.181818 256.32 
L 206.181818 256.32 
L 198.572727 256.32 
z
" clip-path="url(#p0464905847)" style="fill: #0072b2"/>
   </g>
   <g id="patch_21">
    <path d="M 206.181818 256.32 
L 213.790909 256.32 
L 213.790909 256.32 
L 206.181818 256.32 
z
" clip-path="url(#p0464905847)" style="fill: #0072b2"/>
   </g>
   <g id="patch_22">
    <path d="M 213.790909 256.32 
L 221.4 256.32 
L 221.4 256.32 
L 213.790909 256.32 
z
" clip-path="url(#p0464905847)" style="fill: #0072b2"/>
   </g>
   <g id="patch_23">
    <path d="M 221.4 256.32 
L 229.009091 256.32 
L 229.009091 256.32 
L 221.4 256.32 
z
" clip-path="url(#p0464905847)" style="fill: #0072b2"/>
   </g>
   <g id="patch_24">
    <path d="M 229.009091 256.32 
L 236.618182 256.32 
L 236.618182 256.32 
L 229.009091 256.32 
z
" clip-path="url(#p0464905847)" style="fill: #0072b2"/>
   </g>
   <g id="patch_25">
    <path d="M 236.618182 256.32 
L 244.227273 256.32 
L 244.227273 256.32 
L 236.618182 256.32 
z
" clip-path="url(#p0464905847)" style="fill: #0072b2"/>
   </g>
   <g id="patch_26">
    <path d="M 244.227273 256.32 
L 251.836364 256.32 
L 251.836364 256.32 
L 244.227273 256.32 
z
" clip-path="url(#p0464905847)" style="fill: #0072b2"/>
   </g>
   <g id="patch_27">
    <path d="M 251.836364 256.32 
L 259.445455 256.32 
L 259.445455 256.32 
L 251.836364 256.32 
z
" clip-path="url(#p0464905847)" style="fill: #0072b2"/>
   </g>
   <g id="patch_28">
    <path d="M 259.445455 256.32 
L 267.054545 256.32 
L 267.054545 256.32 
L 259.445455 256.32 
z
" clip-path="url(#p0464905847)" style="fill: #0072b2"/>
   </g>
   <g id="patch_29">
    <path d="M 267.054545 256.32 
L 274.663636 256.32 
L 274.663636 256.32 
L 267.054545 256.32 
z
" clip-path="url(#p0464905847)" style="fill: #0072b2"/>
   </g>
   <g id="patch_30">
    <path d="M 274.663636 256.32 
L 282.272727 256.32 
L 282.272727 256.32 
L 274.663636 256.32 
z
" clip-path="url(#p0464905847)" style="fill: #0072b2"/>
   </g>
   <g id="patch_31">
    <path d="M 282.272727 256.32 
L 289.881818 256.32 
L 289.881818 256.32 
L 282.272727 256.32 
z
" clip-path="url(#p0464905847)" style="fill: #0072b2"/>
   </g>
   <g id="patch_32">
    <path d="M 289.881818 256.32 
L 297.490909 256.32 
L 297.490909 256.32 
L 289.881818 256.32 
z
" clip-path="url(#p0464905847)" style="fill: #0072b2"/>
   </g>
   <g id="patch_33">
    <path d="M 297.490909 256.32 
L 305.1 256.32 
L 305.1 256.32 
L 297.490909 256.32 
z
" clip-path="url(#p0464905847)" style="fill: #0072b2"/>
   </g>
   <g id="patch_34">
    <path d="M 305.1 256.32 
L 312.709091 256.32 
L 312.709091 256.32 
L 305.1 256.32 
z
" clip-path="url(#p0464905847)" style="fill: #0072b2"/>
   </g>
   <g id="patch_35">
    <path d="M 312.709091 256.32 
L 320.318182 256.32 
L 320.318182 256.32 
L 312.709091 256.32 
z
" clip-path="url(#p0464905847)" style="fill: #0072b2"/>
   </g>
   <g id="patch_36">
    <path d="M 320.318182 256.32 
L 327.927273 256.32 
L 327.927273 256.32 
L 320.318182 256.32 
z
" clip-path="url(#p0464905847)" style="fill: #0072b2"/>
   </g>
   <g id="patch_37">
    <path d="M 327.927273 256.32 
L 335.536364 256.32 
L 335.536364 256.32 
L 327.927273 256.32 
z
" clip-path="url(#p0464905847)" style="fill: #0072b2"/>
   </g>
   <g id="patch_38">
    <path d="M 335.536364 256.32 
L 343.145455 256.32 
L 343.145455 256.32 
L 335.536364 256.32 
z
" clip-path="url(#p0464905847)" style="fill: #0072b2"/>
   </g>
   <g id="patch_39">
    <path d="M 343.145455 256.32 
L 350.754545 256.32 
L 350.754545 256.32 
L 343.145455 256.32 
z
" clip-path="url(#p0464905847)" style="fill: #0072b2"/>
   </g>
   <g id="patch_40">
    <path d="M 350.754545 256.32 
L 358.363636 256.32 
L 358.363636 256.32 
L 350.754545 256.32 
z
" clip-path="url(#p0464905847)" style="fill: #0072b2"/>
   </g>
   <g id="patch_41">
    <path d="M 358.363636 256.32 
L 365.972727 256.32 
L 365.972727 256.32 
L 358.363636 256.32 
z
" clip-path="url(#p0464905847)" style="fill: #0072b2"/>
   </g>
   <g id="patch_42">
    <path d="M 365.972727 256.32 
L 373.581818 256.32 
L 373.581818 256.32 
L 365.972727 256.32 
z
" clip-path="url(#p0464905847)" style="fill: #0072b2"/>
   </g>
   <g id="patch_43">
    <path d="M 69.218182 236.581682 
L 76.827273 236.581682 
L 76.827273 236.581682 
L 69.218182 236.581682 
z
" clip-path="url(#p0464905847)" style="fill: #009e73"/>
   </g>
   <g id="patch_44">
    <path d="M 76.827273 228.686355 
L 84.436364 228.686355 
L 84.436364 228.686355 
L 76.827273 228.686355 
z
" clip-path="url(#p0464905847)" style="fill: #009e73"/>
   </g>
   <g id="patch_45">
    <path d="M 84.436364 187.235888 
L 92.045455 187.235888 
L 92.045455 187.235888 
L 84.436364 187.235888 
z
" clip-path="url(#p0464905847)" style="fill: #009e73"/>
   </g>
   <g id="patch_46">
    <path d="M 92.045455 193.157383 
L 99.654545 193.157383 
L 99.654545 193.157383 
L 92.045455 193.157383 
z
" clip-path="url(#p0464905847)" style="fill: #009e73"/>
   </g>
   <g id="patch_47">
    <path d="M 99.654545 165.523738 
L 107.263636 165.523738 
L 107.263636 165.523738 
L 99.654545 165.523738 
z
" clip-path="url(#p0464905847)" style="fill: #009e73"/>
   </g>
   <g id="patch_48">
    <path d="M 107.263636 137.890093 
L 114.872727 137.890093 
L 114.872727 137.890093 
L 107.263636 137.890093 
z
" clip-path="url(#p0464905847)" style="fill: #009e73"/>
   </g>
   <g id="patch_49">
    <path d="M 114.872727 100.38729 
L 122.481818 100.38729 
L 122.481818 100.38729 
L 114.872727 100.38729 
z
" clip-path="url(#p0464905847)" style="fill: #009e73"/>
   </g>
   <g id="patch_50">
    <path d="M 122.481818 131.968598 
L 130.090909 131.968598 
L 130.090909 131.968598 
L 122.481818 131.968598 
z
" clip-path="url(#p0464905847)" style="fill: #009e73"/>
   </g>
   <g id="patch_51">
    <path d="M 130.090909 114.204112 
L 137.7 114.204112 
L 137.7 114.204112 
L 130.090909 114.204112 
z
" clip-path="url(#p0464905847)" style="fill: #009e73"/>
   </g>
   <g id="patch_52">
    <path d="M 137.7 169.471402 
L 145.309091 169.471402 
L 145.309091 169.471402 
L 137.7 169.471402 
z
" clip-path="url(#p0464905847)" style="fill: #009e73"/>
   </g>
   <g id="patch_53">
    <path d="M 145.309091 256.32 
L 152.918182 256.32 
L 152.918182 226.712523 
L 145.309091 226.712523 
z
" clip-path="url(#p0464905847)" style="fill: #009e73"/>
   </g>
   <g id="patch_54">
    <path d="M 152.918182 256.32 
L 160.527273 256.32 
L 160.527273 218.817196 
L 152.918182 218.817196 
z
" clip-path="url(#p0464905847)" style="fill: #009e73"/>
   </g>
   <g id="patch_55">
    <path d="M 160.527273 256.32 
L 168.136364 256.32 
L 168.136364 212.895701 
L 160.527273 212.895701 
z
" clip-path="url(#p0464905847)" style="fill: #009e73"/>
   </g>
   <g id="patch_56">
    <path d="M 168.136364 256.32 
L 175.745455 256.32 
L 175.745455 222.76486 
L 168.136364 222.76486 
z
" clip-path="url(#p0464905847)" style="fill: #009e73"/>
   </g>
   <g id="patch_57">
    <path d="M 175.745455 256.32 
L 183.354545 256.32 
L 183.354545 214.869533 
L 175.745455 214.869533 
z
" clip-path="url(#p0464905847)" style="fill: #009e73"/>
   </g>
   <g id="patch_58">
    <path d="M 183.354545 256.32 
L 190.963636 256.32 
L 190.963636 201.05271 
L 183.354545 201.05271 
z
" clip-path="url(#p0464905847)" style="fill: #009e73"/>
   </g>
   <g id="patch_59">
    <path d="M 190.963636 256.32 
L 198.572727 256.32 
L 198.572727 208.948037 
L 190.963636 208.948037 
z
" clip-path="url(#p0464905847)" style="fill: #009e73"/>
   </g>
   <g id="patch_60">
    <path d="M 198.572727 256.32 
L 206.181818 256.32 
L 206.181818 203.026542 
L 198.572727 203.026542 
z
" clip-path="url(#p0464905847)" style="fill: #009e73"/>
   </g>
   <g id="patch_61">
    <path d="M 206.181818 256.32 
L 213.790909 256.32 
L 213.790909 206.974206 
L 206.181818 206.974206 
z
" clip-path="url(#p0464905847)" style="fill: #009e73"/>
   </g>
   <g id="patch_62">
    <path d="M 213.790909 256.32 
L 221.4 256.32 
L 221.4 208.948037 
L 213.790909 208.948037 
z
" clip-path="url(#p0464905847)" style="fill: #009e73"/>
   </g>
   <g id="patch_63">
    <path d="M 221.4 256.32 
L 229.009091 256.32 
L 229.009091 236.581682 
L 221.4 236.581682 
z
" clip-path="url(#p0464905847)" style="fill: #009e73"/>
   </g>
   <g id="patch_64">
    <path d="M 229.009091 256.32 
L 236.618182 256.32 
L 236.618182 242.503178 
L 229.009091 242.503178 
z
" clip-path="url(#p0464905847)" style="fill: #009e73"/>
   </g>
   <g id="patch_65">
    <path d="M 236.618182 256.32 
L 244.227273 256.32 
L 244.227273 240.529346 
L 236.618182 240.529346 
z
" clip-path="url(#p0464905847)" style="fill: #009e73"/>
   </g>
   <g id="patch_66">
    <path d="M 244.227273 256.32 
L 251.836364 256.32 
L 251.836364 228.686355 
L 244.227273 228.686355 
z
" clip-path="url(#p0464905847)" style="fill: #009e73"/>
   </g>
   <g id="patch_67">
    <path d="M 251.836364 256.32 
L 259.445455 256.32 
L 259.445455 226.712523 
L 251.836364 226.712523 
z
" clip-path="url(#p0464905847)" style="fill: #009e73"/>
   </g>
   <g id="patch_68">
    <path d="M 259.445455 256.32 
L 267.054545 256.32 
L 267.054545 232.634019 
L 259.445455 232.634019 
z
" clip-path="url(#p0464905847)" style="fill: #009e73"/>
   </g>
   <g id="patch_69">
    <path d="M 267.054545 256.32 
L 274.663636 256.32 
L 274.663636 232.634019 
L 267.054545 232.634019 
z
" clip-path="url(#p0464905847)" style="fill: #009e73"/>
   </g>
   <g id="patch_70">
    <path d="M 274.663636 256.32 
L 282.272727 256.32 
L 282.272727 234.60785 
L 274.663636 234.60785 
z
" clip-path="url(#p0464905847)" style="fill: #009e73"/>
   </g>
   <g id="patch_71">
    <path d="M 282.272727 256.32 
L 289.881818 256.32 
L 289.881818 238.555514 
L 282.272727 238.555514 
z
" clip-path="url(#p0464905847)" style="fill: #009e73"/>
   </g>
   <g id="patch_72">
    <path d="M 289.881818 256.32 
L 297.490909 256.32 
L 297.490909 236.581682 
L 289.881818 236.581682 
z
" clip-path="url(#p0464905847)" style="fill: #009e73"/>
   </g>
   <g id="patch_73">
    <path d="M 297.490909 256.32 
L 305.1 256.32 
L 305.1 254.346168 
L 297.490909 254.346168 
z
" clip-path="url(#p0464905847)" style="fill: #009e73"/>
   </g>
   <g id="patch_74">
    <path d="M 305.1 256.32 
L 312.709091 256.32 
L 312.709091 256.32 
L 305.1 256.32 
z
" clip-path="url(#p0464905847)" style="fill: #009e73"/>
   </g>
   <g id="patch_75">
    <path d="M 312.709091 256.32 
L 320.318182 256.32 
L 320.318182 256.32 
L 312.709091 256.32 
z
" clip-path="url(#p0464905847)" style="fill: #009e73"/>
   </g>
   <g id="patch_76">
    <path d="M 320.318182 256.32 
L 327.927273 256.32 
L 327.927273 256.32 
L 320.318182 256.32 
z
" clip-path="url(#p0464905847)" style="fill: #009e73"/>
   </g>
   <g id="patch_77">
    <path d="M 327.927273 256.32 
L 335.536364 256.32 
L 335.536364 256.32 
L 327.927273 256.32 
z
" clip-path="url(#p0464905847)" style="fill: #009e73"/>
   </g>
   <g id="patch_78">
    <path d="M 335.536364 256.32 
L 343.145455 256.32 
L 343.145455 256.32 
L 335.536364 256.32 
z
" clip-path="url(#p0464905847)" style="fill: #009e73"/>
   </g>
   <g id="patch_79">
    <path d="M 343.145455 256.32 
L 350.754545 256.32 
L 350.754545 256.32 
L 343.145455 256.32 
z
" clip-path="url(#p0464905847)" style="fill: #009e73"/>
   </g>
   <g id="patch_80">
    <path d="M 350.754545 256.32 
L 358.363636 256.32 
L 358.363636 256.32 
L 350.754545 256.32 
z
" clip-path="url(#p0464905847)" style="fill: #009e73"/>
   </g>
   <g id="patch_81">
    <path d="M 358.363636 256.32 
L 365.972727 256.32 
L 365.972727 256.32 
L 358.363636 256.32 
z
" clip-path="url(#p0464905847)" style="fill: #009e73"/>
   </g>
   <g id="patch_82">
    <path d="M 365.972727 256.32 
L 373.581818 256.32 
L 373.581818 256.32 
L 365.972727 256.32 
z
" clip-path="url(#p0464905847)" style="fill: #009e73"/>
   </g>
   <g id="patch_83">
    <path d="M 69.218182 236.581682 
L 76.827273 236.581682 
L 76.827273 236.581682 
L 69.218182 236.581682 
z
" clip-path="url(#p0464905847)" style="fill: #d55e00"/>
   </g>
   <g id="patch_84">
    <path d="M 76.827273 228.686355 
L 84.436364 228.686355 
L 84.436364 228.686355 
L 76.827273 228.686355 
z
" clip-path="url(#p0464905847)" style="fill: #d55e00"/>
   </g>
   <g id="patch_85">
    <path d="M 84.436364 187.235888 
L 92.045455 187.235888 
L 92.045455 187.235888 
L 84.436364 187.235888 
z
" clip-path="url(#p0464905847)" style="fill: #d55e00"/>
   </g>
   <g id="patch_86">
    <path d="M 92.045455 193.157383 
L 99.654545 193.157383 
L 99.654545 193.157383 
L 92.045455 193.157383 
z
" clip-path="url(#p0464905847)" style="fill: #d55e00"/>
   </g>
   <g id="patch_87">
    <path d="M 99.654545 165.523738 
L 107.263636 165.523738 
L 107.263636 165.523738 
L 99.654545 165.523738 
z
" clip-path="url(#p0464905847)" style="fill: #d55e00"/>
   </g>
   <g id="patch_88">
    <path d="M 107.263636 137.890093 
L 114.872727 137.890093 
L 114.872727 137.890093 
L 107.263636 137.890093 
z
" clip-path="url(#p0464905847)" style="fill: #d55e00"/>
   </g>
   <g id="patch_89">
    <path d="M 114.872727 100.38729 
L 122.481818 100.38729 
L 122.481818 100.38729 
L 114.872727 100.38729 
z
" clip-path="url(#p0464905847)" style="fill: #d55e00"/>
   </g>
   <g id="patch_90">
    <path d="M 122.481818 131.968598 
L 130.090909 131.968598 
L 130.090909 131.968598 
L 122.481818 131.968598 
z
" clip-path="url(#p0464905847)" style="fill: #d55e00"/>
   </g>
   <g id="patch_91">
    <path d="M 130.090909 114.204112 
L 137.7 114.204112 
L 137.7 114.204112 
L 130.090909 114.204112 
z
" clip-path="url(#p0464905847)" style="fill: #d55e00"/>
   </g>
   <g id="patch_92">
    <path d="M 137.7 169.471402 
L 145.309091 169.471402 
L 145.309091 169.471402 
L 137.7 169.471402 
z
" clip-path="url(#p0464905847)" style="fill: #d55e00"/>
   </g>
   <g id="patch_93">
    <path d="M 145.309091 226.712523 
L 152.918182 226.712523 
L 152.918182 195.131215 
L 145.309091 195.131215 
z
" clip-path="url(#p0464905847)" style="fill: #d55e00"/>
   </g>
   <g id="patch_94">
    <path d="M 152.918182 218.817196 
L 160.527273 218.817196 
L 160.527273 195.131215 
L 152.918182 195.131215 
z
" clip-path="url(#p0464905847)" style="fill: #d55e00"/>
   </g>
   <g id="patch_95">
    <path d="M 160.527273 212.895701 
L 168.136364 212.895701 
L 168.136364 175.392897 
L 160.527273 175.392897 
z
" clip-path="url(#p0464905847)" style="fill: #d55e00"/>
   </g>
   <g id="patch_96">
    <path d="M 168.136364 222.76486 
L 175.745455 222.76486 
L 175.745455 195.131215 
L 168.136364 195.131215 
z
" clip-path="url(#p0464905847)" style="fill: #d55e00"/>
   </g>
   <g id="patch_97">
    <path d="M 175.745455 214.869533 
L 183.354545 214.869533 
L 183.354545 177.366729 
L 175.745455 177.366729 
z
" clip-path="url(#p0464905847)" style="fill: #d55e00"/>
   </g>
   <g id="patch_98">
    <path d="M 183.354545 201.05271 
L 190.963636 201.05271 
L 190.963636 163.549907 
L 183.354545 163.549907 
z
" clip-path="url(#p0464905847)" style="fill: #d55e00"/>
   </g>
   <g id="patch_99">
    <path d="M 190.963636 208.948037 
L 198.572727 208.948037 
L 198.572727 167.49757 
L 190.963636 167.49757 
z
" clip-path="url(#p0464905847)" style="fill: #d55e00"/>
   </g>
   <g id="patch_100">
    <path d="M 198.572727 203.026542 
L 206.181818 203.026542 
L 206.181818 167.49757 
L 198.572727 167.49757 
z
" clip-path="url(#p0464905847)" style="fill: #d55e00"/>
   </g>
   <g id="patch_101">
    <path d="M 206.181818 206.974206 
L 213.790909 206.974206 
L 213.790909 153.680748 
L 206.181818 153.680748 
z
" clip-path="url(#p0464905847)" style="fill: #d55e00"/>
   </g>
   <g id="patch_102">
    <path d="M 213.790909 208.948037 
L 221.4 208.948037 
L 221.4 163.549907 
L 213.790909 163.549907 
z
" clip-path="url(#p0464905847)" style="fill: #d55e00"/>
   </g>
   <g id="patch_103">
    <path d="M 221.4 236.581682 
L 229.009091 236.581682 
L 229.009091 185.262056 
L 221.4 185.262056 
z
" clip-path="url(#p0464905847)" style="fill: #d55e00"/>
   </g>
   <g id="patch_104">
    <path d="M 229.009091 242.503178 
L 236.618182 242.503178 
L 236.618182 203.026542 
L 229.009091 203.026542 
z
" clip-path="url(#p0464905847)" style="fill: #d55e00"/>
   </g>
   <g id="patch_105">
    <path d="M 236.618182 240.529346 
L 244.227273 240.529346 
L 244.227273 210.921869 
L 236.618182 210.921869 
z
" clip-path="url(#p0464905847)" style="fill: #d55e00"/>
   </g>
   <g id="patch_106">
    <path d="M 244.227273 228.686355 
L 251.836364 228.686355 
L 251.836364 206.974206 
L 244.227273 206.974206 
z
" clip-path="url(#p0464905847)" style="fill: #d55e00"/>
   </g>
   <g id="patch_107">
    <path d="M 251.836364 226.712523 
L 259.445455 226.712523 
L 259.445455 203.026542 
L 251.836364 203.026542 
z
" clip-path="url(#p0464905847)" style="fill: #d55e00"/>
   </g>
   <g id="patch_108">
    <path d="M 259.445455 232.634019 
L 267.054545 232.634019 
L 267.054545 203.026542 
L 259.445455 203.026542 
z
" clip-path="url(#p0464905847)" style="fill: #d55e00"/>
   </g>
   <g id="patch_109">
    <path d="M 267.054545 232.634019 
L 274.663636 232.634019 
L 274.663636 208.948037 
L 267.054545 208.948037 
z
" clip-path="url(#p0464905847)" style="fill: #d55e00"/>
   </g>
   <g id="patch_110">
    <path d="M 274.663636 234.60785 
L 282.272727 234.60785 
L 282.272727 228.686355 
L 274.663636 228.686355 
z
" clip-path="url(#p0464905847)" style="fill: #d55e00"/>
   </g>
   <g id="patch_111">
    <path d="M 282.272727 238.555514 
L 289.881818 238.555514 
L 289.881818 228.686355 
L 282.272727 228.686355 
z
" clip-path="url(#p0464905847)" style="fill: #d55e00"/>
   </g>
   <g id="patch_112">
    <path d="M 289.881818 236.581682 
L 297.490909 236.581682 
L 297.490909 222.76486 
L 289.881818 222.76486 
z
" clip-path="url(#p0464905847)" style="fill: #d55e00"/>
   </g>
   <g id="patch_113">
    <path d="M 297.490909 254.346168 
L 305.1 254.346168 
L 305.1 246.450841 
L 297.490909 246.450841 
z
" clip-path="url(#p0464905847)" style="fill: #d55e00"/>
   </g>
   <g id="patch_114">
    <path d="M 305.1 256.32 
L 312.709091 256.32 
L 312.709091 250.398505 
L 305.1 250.398505 
z
" clip-path="url(#p0464905847)" style="fill: #d55e00"/>
   </g>
   <g id="patch_115">
    <path d="M 312.709091 256.32 
L 320.318182 256.32 
L 320.318182 256.32 
L 312.709091 256.32 
z
" clip-path="url(#p0464905847)" style="fill: #d55e00"/>
   </g>
   <g id="patch_116">
    <path d="M 320.318182 256.32 
L 327.927273 256.32 
L 327.927273 256.32 
L 320.318182 256.32 
z
" clip-path="url(#p0464905847)" style="fill: #d55e00"/>
   </g>
   <g id="patch_117">
    <path d="M 327.927273 256.32 
L 335.536364 256.32 
L 335.536364 256.32 
L 327.927273 256.32 
z
" clip-path="url(#p0464905847)" style="fill: #d55e00"/>
   </g>
   <g id="patch_118">
    <path d="M 335.536364 256.32 
L 343.145455 256.32 
L 343.145455 256.32 
L 335.536364 256.32 
z
" clip-path="url(#p0464905847)" style="fill: #d55e00"/>
   </g>
   <g id="patch_119">
    <path d="M 343.145455 256.32 
L 350.754545 256.32 
L 350.754545 256.32 
L 343.145455 256.32 
z
" clip-path="url(#p0464905847)" style="fill: #d55e00"/>
   </g>
   <g id="patch_120">
    <path d="M 350.754545 256.32 
L 358.363636 256.32 
L 358.363636 256.32 
L 350.754545 256.32 
z
" clip-path="url(#p0464905847)" style="fill: #d55e00"/>
   </g>
   <g id="patch_121">
    <path d="M 358.363636 256.32 
L 365.972727 256.32 
L 365.972727 256.32 
L 358.363636 256.32 
z
" clip-path="url(#p0464905847)" style="fill: #d55e00"/>
   </g>
   <g id="patch_122">
    <path d="M 365.972727 256.32 
L 373.581818 256.32 
L 373.581818 256.32 
L 365.972727 256.32 
z
" clip-path="url(#p0464905847)" style="fill: #d55e00"/>
   </g>
   <g id="patch_123">
    <path d="M 69.218182 236.581682 
L 76.827273 236.581682 
L 76.827273 234.60785 
L 69.218182 234.60785 
z
" clip-path="url(#p0464905847)" style="fill: #cc79a7"/>
   </g>
   <g id="patch_124">
    <path d="M 76.827273 228.686355 
L 84.436364 228.686355 
L 84.436364 216.843364 
L 76.827273 216.843364 
z
" clip-path="url(#p0464905847)" style="fill: #cc79a7"/>
   </g>
   <g id="patch_125">
    <path d="M 84.436364 187.235888 
L 92.045455 187.235888 
L 92.045455 169.471402 
L 84.436364 169.471402 
z
" clip-path="url(#p0464905847)" style="fill: #cc79a7"/>
   </g>
   <g id="patch_126">
    <path d="M 92.045455 193.157383 
L 99.654545 193.157383 
L 99.654545 163.549907 
L 92.045455 163.549907 
z
" clip-path="url(#p0464905847)" style="fill: #cc79a7"/>
   </g>
   <g id="patch_127">
    <path d="M 99.654545 165.523738 
L 107.263636 165.523738 
L 107.263636 128.020935 
L 99.654545 128.020935 
z
" clip-path="url(#p0464905847)" style="fill: #cc79a7"/>
   </g>
   <g id="patch_128">
    <path d="M 107.263636 137.890093 
L 114.872727 137.890093 
L 114.872727 86.570467 
L 107.263636 86.570467 
z
" clip-path="url(#p0464905847)" style="fill: #cc79a7"/>
   </g>
   <g id="patch_129">
    <path d="M 114.872727 100.38729 
L 122.481818 100.38729 
L 122.481818 62.884486 
L 114.872727 62.884486 
z
" clip-path="url(#p0464905847)" style="fill: #cc79a7"/>
   </g>
   <g id="patch_130">
    <path d="M 122.481818 131.968598 
L 130.090909 131.968598 
L 130.090909 62.884486 
L 122.481818 62.884486 
z
" clip-path="url(#p0464905847)" style="fill: #cc79a7"/>
   </g>
   <g id="patch_131">
    <path d="M 130.090909 114.204112 
L 137.7 114.204112 
L 137.7 45.12 
L 130.090909 45.12 
z
" clip-path="url(#p0464905847)" style="fill: #cc79a7"/>
   </g>
   <g id="patch_132">
    <path d="M 137.7 169.471402 
L 145.309091 169.471402 
L 145.309091 58.936822 
L 137.7 58.936822 
z
" clip-path="url(#p0464905847)" style="fill: #cc79a7"/>
   </g>
   <g id="patch_133">
    <path d="M 145.309091 195.131215 
L 152.918182 195.131215 
L 152.918182 90.518131 
L 145.309091 90.518131 
z
" clip-path="url(#p0464905847)" style="fill: #cc79a7"/>
   </g>
   <g id="patch_134">
    <path d="M 152.918182 195.131215 
L 160.527273 195.131215 
L 160.527273 80.648972 
L 152.918182 80.648972 
z
" clip-path="url(#p0464905847)" style="fill: #cc79a7"/>
   </g>
   <g id="patch_135">
    <path d="M 160.527273 175.392897 
L 168.136364 175.392897 
L 168.136364 86.570467 
L 160.527273 86.570467 
z
" clip-path="url(#p0464905847)" style="fill: #cc79a7"/>
   </g>
   <g id="patch_136">
    <path d="M 168.136364 195.131215 
L 175.745455 195.131215 
L 175.745455 90.518131 
L 168.136364 90.518131 
z
" clip-path="url(#p0464905847)" style="fill: #cc79a7"/>
   </g>
   <g id="patch_137">
    <path d="M 175.745455 177.366729 
L 183.354545 177.366729 
L 183.354545 104.334953 
L 175.745455 104.334953 
z
" clip-path="url(#p0464905847)" style="fill: #cc79a7"/>
   </g>
   <g id="patch_138">
    <path d="M 183.354545 163.549907 
L 190.963636 163.549907 
L 190.963636 112.23028 
L 183.354545 112.23028 
z
" clip-path="url(#p0464905847)" style="fill: #cc79a7"/>
   </g>
   <g id="patch_139">
    <path d="M 190.963636 167.49757 
L 198.572727 167.49757 
L 198.572727 104.334953 
L 190.963636 104.334953 
z
" clip-path="url(#p0464905847)" style="fill: #cc79a7"/>
   </g>
   <g id="patch_140">
    <path d="M 198.572727 167.49757 
L 206.181818 167.49757 
L 206.181818 124.073271 
L 198.572727 124.073271 
z
" clip-path="url(#p0464905847)" style="fill: #cc79a7"/>
   </g>
   <g id="patch_141">
    <path d="M 206.181818 153.680748 
L 213.790909 153.680748 
L 213.790909 106.308785 
L 206.181818 106.308785 
z
" clip-path="url(#p0464905847)" style="fill: #cc79a7"/>
   </g>
   <g id="patch_142">
    <path d="M 213.790909 163.549907 
L 221.4 163.549907 
L 221.4 135.916262 
L 213.790909 135.916262 
z
" clip-path="url(#p0464905847)" style="fill: #cc79a7"/>
   </g>
   <g id="patch_143">
    <path d="M 221.4 185.262056 
L 229.009091 185.262056 
L 229.009091 153.680748 
L 221.4 153.680748 
z
" clip-path="url(#p0464905847)" style="fill: #cc79a7"/>
   </g>
   <g id="patch_144">
    <path d="M 229.009091 203.026542 
L 236.618182 203.026542 
L 236.618182 159.602243 
L 229.009091 159.602243 
z
" clip-path="url(#p0464905847)" style="fill: #cc79a7"/>
   </g>
   <g id="patch_145">
    <path d="M 236.618182 210.921869 
L 244.227273 210.921869 
L 244.227273 181.314393 
L 236.618182 181.314393 
z
" clip-path="url(#p0464905847)" style="fill: #cc79a7"/>
   </g>
   <g id="patch_146">
    <path d="M 244.227273 206.974206 
L 251.836364 206.974206 
L 251.836364 173.419065 
L 244.227273 173.419065 
z
" clip-path="url(#p0464905847)" style="fill: #cc79a7"/>
   </g>
   <g id="patch_147">
    <path d="M 251.836364 203.026542 
L 259.445455 203.026542 
L 259.445455 179.340561 
L 251.836364 179.340561 
z
" clip-path="url(#p0464905847)" style="fill: #cc79a7"/>
   </g>
   <g id="patch_148">
    <path d="M 259.445455 203.026542 
L 267.054545 203.026542 
L 267.054545 189.20972 
L 259.445455 189.20972 
z
" clip-path="url(#p0464905847)" style="fill: #cc79a7"/>
   </g>
   <g id="patch_149">
    <path d="M 267.054545 208.948037 
L 274.663636 208.948037 
L 274.663636 195.131215 
L 267.054545 195.131215 
z
" clip-path="url(#p0464905847)" style="fill: #cc79a7"/>
   </g>
   <g id="patch_150">
    <path d="M 274.663636 228.686355 
L 282.272727 228.686355 
L 282.272727 210.921869 
L 274.663636 210.921869 
z
" clip-path="url(#p0464905847)" style="fill: #cc79a7"/>
   </g>
   <g id="patch_151">
    <path d="M 282.272727 228.686355 
L 289.881818 228.686355 
L 289.881818 222.76486 
L 282.272727 222.76486 
z
" clip-path="url(#p0464905847)" style="fill: #cc79a7"/>
   </g>
   <g id="patch_152">
    <path d="M 289.881818 222.76486 
L 297.490909 222.76486 
L 297.490909 216.843364 
L 289.881818 216.843364 
z
" clip-path="url(#p0464905847)" style="fill: #cc79a7"/>
   </g>
   <g id="patch_153">
    <path d="M 297.490909 246.450841 
L 305.1 246.450841 
L 305.1 242.503178 
L 297.490909 242.503178 
z
" clip-path="url(#p0464905847)" style="fill: #cc79a7"/>
   </g>
   <g id="patch_154">
    <path d="M 305.1 250.398505 
L 312.709091 250.398505 
L 312.709091 250.398505 
L 305.1 250.398505 
z
" clip-path="url(#p0464905847)" style="fill: #cc79a7"/>
   </g>
   <g id="patch_155">
    <path d="M 312.709091 256.32 
L 320.318182 256.32 
L 320.318182 256.32 
L 312.709091 256.32 
z
" clip-path="url(#p0464905847)" style="fill: #cc79a7"/>
   </g>
   <g id="patch_156">
    <path d="M 320.318182 256.32 
L 327.927273 256.32 
L 327.927273 256.32 
L 320.318182 256.32 
z
" clip-path="url(#p0464905847)" style="fill: #cc79a7"/>
   </g>
   <g id="patch_157">
    <path d="M 327.927273 256.32 
L 335.536364 256.32 
L 335.536364 256.32 
L 327.927273 256.32 
z
" clip-path="url(#p0464905847)" style="fill: #cc79a7"/>
   </g>
   <g id="patch_158">
    <path d="M 335.536364 256.32 
L 343.145455 256.32 
L 343.145455 256.32 
L 335.536364 256.32 
z
" clip-path="url(#p0464905847)" style="fill: #cc79a7"/>
   </g>
   <g id="patch_159">
    <path d="M 343.145455 256.32 
L 350.754545 256.32 
L 350.754545 256.32 
L 343.145455 256.32 
z
" clip-path="url(#p0464905847)" style="fill: #cc79a7"/>
   </g>
   <g id="patch_160">
    <path d="M 350.754545 256.32 
L 358.363636 256.32 
L 358.363636 256.32 
L 350.754545 256.32 
z
" clip-path="url(#p0464905847)" style="fill: #cc79a7"/>
   </g>
   <g id="patch_161">
    <path d="M 358.363636 256.32 
L 365.972727 256.32 
L 365.972727 256.32 
L 358.363636 256.32 
z
" clip-path="url(#p0464905847)" style="fill: #cc79a7"/>
   </g>
   <g id="patch_162">
    <path d="M 365.972727 256.32 
L 373.581818 256.32 
L 373.581818 256.32 
L 365.972727 256.32 
z
" clip-path="url(#p0464905847)" style="fill: #cc79a7"/>
   </g>
   <g id="patch_163">
    <path d="M 54 256.32 
L 54 34.56 
" style="fill: none; stroke: #000000; stroke-width: 0.8; stroke-linejoin: miter; stroke-linecap: square"/>
   </g>
   <g id="patch_164">
    <path d="M 388.8 256.32 
L 388.8 34.56 
" style="fill: none; stroke: #000000; stroke-width: 0.8; stroke-linejoin: miter; stroke-linecap: square"/>
   </g>
   <g id="patch_165">
    <path d="M 54 256.32 
L 388.8 256.32 
" style="fill: none; stroke: #000000; stroke-width: 0.8; stroke-linejoin: miter; stroke-linecap: square"/>
   </g>
   <g id="patch_166">
    <path d="M 54 34.56 
L 388.8 34.56 
" style="fill: none; stroke: #000000; stroke-width: 0.8; stroke-linejoin: miter; stroke-linecap: square"/>
   </g>
   <g id="text_18">
    <!-- Histogram of MJO Magnitude (total 1805 cases) -->
    <g transform="translate(79.002188 28.56) scale(0.12 -0.12)">
     <defs>
      <path id="DejaVuSans-48" d="M 628 4666 
L 1259 4666 
L 1259 2753 
L 3553 2753 
L 3553 4666 
L 4184 4666 
L 4184 0 
L 3553 0 
L 3553 2222 
L 1259 2222 
L 1259 0 
L 628 0 
L 628 4666 
z
" transform="scale(0.015625)"/>
      <path id="DejaVuSans-73" d="M 2834 3397 
L 2834 2853 
Q 2591 2978 2328 3040 
Q 2066 3103 1784 3103 
Q 1356 3103 1142 2972 
Q 928 2841 928 2578 
Q 928 2378 1081 2264 
Q 1234 2150 1697 2047 
L 1894 2003 
Q 2506 1872 2764 1633 
Q 3022 1394 3022 966 
Q 3022 478 2636 193 
Q 2250 -91 1575 -91 
Q 1294 -91 989 -36 
Q 684 19 347 128 
L 347 722 
Q 666 556 975 473 
Q 1284 391 1588 391 
Q 1994 391 2212 530 
Q 2431 669 2431 922 
Q 2431 1156 2273 1281 
Q 2116 1406 1581 1522 
L 1381 1569 
Q 847 1681 609 1914 
Q 372 2147 372 2553 
Q 372 3047 722 3315 
Q 1072 3584 1716 3584 
Q 2034 3584 2315 3537 
Q 2597 3491 2834 3397 
z
" transform="scale(0.015625)"/>
      <path id="DejaVuSans-6f" d="M 1959 3097 
Q 1497 3097 1228 2736 
Q 959 2375 959 1747 
Q 959 1119 1226 758 
Q 1494 397 1959 397 
Q 2419 397 2687 759 
Q 2956 1122 2956 1747 
Q 2956 2369 2687 2733 
Q 2419 3097 1959 3097 
z
M 1959 3584 
Q 2709 3584 3137 3096 
Q 3566 2609 3566 1747 
Q 3566 888 3137 398 
Q 2709 -91 1959 -91 
Q 1206 -91 779 398 
Q 353 888 353 1747 
Q 353 2609 779 3096 
Q 1206 3584 1959 3584 
z
" transform="scale(0.015625)"/>
      <path id="DejaVuSans-6d" d="M 3328 2828 
Q 3544 3216 3844 3400 
Q 4144 3584 4550 3584 
Q 5097 3584 5394 3201 
Q 5691 2819 5691 2113 
L 5691 0 
L 5113 0 
L 5113 2094 
Q 5113 2597 4934 2840 
Q 4756 3084 4391 3084 
Q 3944 3084 3684 2787 
Q 3425 2491 3425 1978 
L 3425 0 
L 2847 0 
L 2847 2094 
Q 2847 2600 2669 2842 
Q 2491 3084 2119 3084 
Q 1678 3084 1418 2786 
Q 1159 2488 1159 1978 
L 1159 0 
L 581 0 
L 581 3500 
L 1159 3500 
L 1159 2956 
Q 1356 3278 1631 3431 
Q 1906 3584 2284 3584 
Q 2666 3584 2933 3390 
Q 3200 3197 3328 2828 
z
" transform="scale(0.015625)"/>
      <path id="DejaVuSans-66" d="M 2375 4863 
L 2375 4384 
L 1825 4384 
Q 1516 4384 1395 4259 
Q 1275 4134 1275 3809 
L 1275 3500 
L 2222 3500 
L 2222 3053 
L 1275 3053 
L 1275 0 
L 697 0 
L 697 3053 
L 147 3053 
L 147 3500 
L 697 3500 
L 697 3744 
Q 697 4328 969 4595 
Q 1241 4863 1831 4863 
L 2375 4863 
z
" transform="scale(0.015625)"/>
      <path id="DejaVuSans-28" d="M 1984 4856 
Q 1566 4138 1362 3434 
Q 1159 2731 1159 2009 
Q 1159 1288 1364 580 
Q 1569 -128 1984 -844 
L 1484 -844 
Q 1016 -109 783 600 
Q 550 1309 550 2009 
Q 550 2706 781 3412 
Q 1013 4119 1484 4856 
L 1984 4856 
z
" transform="scale(0.015625)"/>
      <path id="DejaVuSans-6c" d="M 603 4863 
L 1178 4863 
L 1178 0 
L 603 0 
L 603 4863 
z
" transform="scale(0.015625)"/>
      <path id="DejaVuSans-29" d="M 513 4856 
L 1013 4856 
Q 1481 4119 1714 3412 
Q 1947 2706 1947 2009 
Q 1947 1309 1714 600 
Q 1481 -109 1013 -844 
L 513 -844 
Q 928 -128 1133 580 
Q 1338 1288 1338 2009 
Q 1338 2731 1133 3434 
Q 928 4138 513 4856 
z
" transform="scale(0.015625)"/>
     </defs>
     <use xlink:href="#DejaVuSans-48"/>
     <use xlink:href="#DejaVuSans-69" x="75.195312"/>
     <use xlink:href="#DejaVuSans-73" x="102.978516"/>
     <use xlink:href="#DejaVuSans-74" x="155.078125"/>
     <use xlink:href="#DejaVuSans-6f" x="194.287109"/>
     <use xlink:href="#DejaVuSans-67" x="255.46875"/>
     <use xlink:href="#DejaVuSans-72" x="318.945312"/>
     <use xlink:href="#DejaVuSans-61" x="360.058594"/>
     <use xlink:href="#DejaVuSans-6d" x="421.337891"/>
     <use xlink:href="#DejaVuSans-20" x="518.75"/>
     <use xlink:href="#DejaVuSans-6f" x="550.537109"/>
     <use xlink:href="#DejaVuSans-66" x="611.71875"/>
     <use xlink:href="#DejaVuSans-20" x="646.923828"/>
     <use xlink:href="#DejaVuSans-4d" x="678.710938"/>
     <use xlink:href="#DejaVuSans-4a" x="764.990234"/>
     <use xlink:href="#DejaVuSans-4f" x="794.482422"/>
     <use xlink:href="#DejaVuSans-20" x="873.193359"/>
     <use xlink:href="#DejaVuSans-4d" x="904.980469"/>
     <use xlink:href="#DejaVuSans-61" x="991.259766"/>
     <use xlink:href="#DejaVuSans-67" x="1052.539062"/>
     <use xlink:href="#DejaVuSans-6e" x="1116.015625"/>
     <use xlink:href="#DejaVuSans-69" x="1179.394531"/>
     <use xlink:href="#DejaVuSans-74" x="1207.177734"/>
     <use xlink:href="#DejaVuSans-75" x="1246.386719"/>
     <use xlink:href="#DejaVuSans-64" x="1309.765625"/>
     <use xlink:href="#DejaVuSans-65" x="1373.242188"/>
     <use xlink:href="#DejaVuSans-20" x="1434.765625"/>
     <use xlink:href="#DejaVuSans-28" x="1466.552734"/>
     <use xlink:href="#DejaVuSans-74" x="1505.566406"/>
     <use xlink:href="#DejaVuSans-6f" x="1544.775391"/>
     <use xlink:href="#DejaVuSans-74" x="1605.957031"/>
     <use xlink:href="#DejaVuSans-61" x="1645.166016"/>
     <use xlink:href="#DejaVuSans-6c" x="1706.445312"/>
     <use xlink:href="#DejaVuSans-20" x="1734.228516"/>
     <use xlink:href="#DejaVuSans-31" x="1766.015625"/>
     <use xlink:href="#DejaVuSans-38" x="1829.638672"/>
     <use xlink:href="#DejaVuSans-30" x="1893.261719"/>
     <use xlink:href="#DejaVuSans-35" x="1956.884766"/>
     <use xlink:href="#DejaVuSans-20" x="2020.507812"/>
     <use xlink:href="#DejaVuSans-63" x="2052.294922"/>
     <use xlink:href="#DejaVuSans-61" x="2107.275391"/>
     <use xlink:href="#DejaVuSans-73" x="2168.554688"/>
     <use xlink:href="#DejaVuSans-65" x="2220.654297"/>
     <use xlink:href="#DejaVuSans-73" x="2282.177734"/>
     <use xlink:href="#DejaVuSans-29" x="2334.277344"/>
    </g>
   </g>
   <g id="legend_1">
    <g id="patch_167">
     <path d="M 263.671875 101.2725 
L 381.8 101.2725 
Q 383.8 101.2725 383.8 99.2725 
L 383.8 41.56 
Q 383.8 39.56 381.8 39.56 
L 263.671875 39.56 
Q 261.671875 39.56 261.671875 41.56 
L 261.671875 99.2725 
Q 261.671875 101.2725 263.671875 101.2725 
z
" style="fill: #ffffff; opacity: 0.8; stroke: #cccccc; stroke-linejoin: miter"/>
    </g>
    <g id="patch_168">
     <path d="M 265.671875 51.158438 
L 285.671875 51.158438 
L 285.671875 44.158438 
L 265.671875 44.158438 
z
" style="fill: #0072b2"/>
    </g>
    <g id="text_19">
     <!-- NonMJO (455) -->
     <g transform="translate(293.671875 51.158438) scale(0.1 -0.1)">
      <defs>
       <path id="DejaVuSans-4e" d="M 628 4666 
L 1478 4666 
L 3547 763 
L 3547 4666 
L 4159 4666 
L 4159 0 
L 3309 0 
L 1241 3903 
L 1241 0 
L 628 0 
L 628 4666 
z
" transform="scale(0.015625)"/>
      </defs>
      <use xlink:href="#DejaVuSans-4e"/>
      <use xlink:href="#DejaVuSans-6f" x="74.804688"/>
      <use xlink:href="#DejaVuSans-6e" x="135.986328"/>
      <use xlink:href="#DejaVuSans-4d" x="199.365234"/>
      <use xlink:href="#DejaVuSans-4a" x="285.644531"/>
      <use xlink:href="#DejaVuSans-4f" x="315.136719"/>
      <use xlink:href="#DejaVuSans-20" x="393.847656"/>
      <use xlink:href="#DejaVuSans-28" x="425.634766"/>
      <use xlink:href="#DejaVuSans-34" x="464.648438"/>
      <use xlink:href="#DejaVuSans-35" x="528.271484"/>
      <use xlink:href="#DejaVuSans-35" x="591.894531"/>
      <use xlink:href="#DejaVuSans-29" x="655.517578"/>
     </g>
    </g>
    <g id="patch_169">
     <path d="M 265.671875 65.836563 
L 285.671875 65.836563 
L 285.671875 58.836563 
L 265.671875 58.836563 
z
" style="fill: #009e73"/>
    </g>
    <g id="text_20">
     <!-- P1234 (331) -->
     <g transform="translate(293.671875 65.836563) scale(0.1 -0.1)">
      <defs>
       <path id="DejaVuSans-50" d="M 1259 4147 
L 1259 2394 
L 2053 2394 
Q 2494 2394 2734 2622 
Q 2975 2850 2975 3272 
Q 2975 3691 2734 3919 
Q 2494 4147 2053 4147 
L 1259 4147 
z
M 628 4666 
L 2053 4666 
Q 2838 4666 3239 4311 
Q 3641 3956 3641 3272 
Q 3641 2581 3239 2228 
Q 2838 1875 2053 1875 
L 1259 1875 
L 1259 0 
L 628 0 
L 628 4666 
z
" transform="scale(0.015625)"/>
      </defs>
      <use xlink:href="#DejaVuSans-50"/>
      <use xlink:href="#DejaVuSans-31" x="60.302734"/>
      <use xlink:href="#DejaVuSans-32" x="123.925781"/>
      <use xlink:href="#DejaVuSans-33" x="187.548828"/>
      <use xlink:href="#DejaVuSans-34" x="251.171875"/>
      <use xlink:href="#DejaVuSans-20" x="314.794922"/>
      <use xlink:href="#DejaVuSans-28" x="346.582031"/>
      <use xlink:href="#DejaVuSans-33" x="385.595703"/>
      <use xlink:href="#DejaVuSans-33" x="449.21875"/>
      <use xlink:href="#DejaVuSans-31" x="512.841797"/>
      <use xlink:href="#DejaVuSans-29" x="576.464844"/>
     </g>
    </g>
    <g id="patch_170">
     <path d="M 265.671875 80.514688 
L 285.671875 80.514688 
L 285.671875 73.514688 
L 265.671875 73.514688 
z
" style="fill: #d55e00"/>
    </g>
    <g id="text_21">
     <!-- P5678 (321) -->
     <g transform="translate(293.671875 80.514688) scale(0.1 -0.1)">
      <defs>
       <path id="DejaVuSans-37" d="M 525 4666 
L 3525 4666 
L 3525 4397 
L 1831 0 
L 1172 0 
L 2766 4134 
L 525 4134 
L 525 4666 
z
" transform="scale(0.015625)"/>
      </defs>
      <use xlink:href="#DejaVuSans-50"/>
      <use xlink:href="#DejaVuSans-35" x="60.302734"/>
      <use xlink:href="#DejaVuSans-36" x="123.925781"/>
      <use xlink:href="#DejaVuSans-37" x="187.548828"/>
      <use xlink:href="#DejaVuSans-38" x="251.171875"/>
      <use xlink:href="#DejaVuSans-20" x="314.794922"/>
      <use xlink:href="#DejaVuSans-28" x="346.582031"/>
      <use xlink:href="#DejaVuSans-33" x="385.595703"/>
      <use xlink:href="#DejaVuSans-32" x="449.21875"/>
      <use xlink:href="#DejaVuSans-31" x="512.841797"/>
      <use xlink:href="#DejaVuSans-29" x="576.464844"/>
     </g>
    </g>
    <g id="patch_171">
     <path d="M 265.671875 95.192813 
L 285.671875 95.192813 
L 285.671875 88.192813 
L 265.671875 88.192813 
z
" style="fill: #cc79a7"/>
    </g>
    <g id="text_22">
     <!-- Ambiguous (698) -->
     <g transform="translate(293.671875 95.192813) scale(0.1 -0.1)">
      <defs>
       <path id="DejaVuSans-41" d="M 2188 4044 
L 1331 1722 
L 3047 1722 
L 2188 4044 
z
M 1831 4666 
L 2547 4666 
L 4325 0 
L 3669 0 
L 3244 1197 
L 1141 1197 
L 716 0 
L 50 0 
L 1831 4666 
z
" transform="scale(0.015625)"/>
       <path id="DejaVuSans-62" d="M 3116 1747 
Q 3116 2381 2855 2742 
Q 2594 3103 2138 3103 
Q 1681 3103 1420 2742 
Q 1159 2381 1159 1747 
Q 1159 1113 1420 752 
Q 1681 391 2138 391 
Q 2594 391 2855 752 
Q 3116 1113 3116 1747 
z
M 1159 2969 
Q 1341 3281 1617 3432 
Q 1894 3584 2278 3584 
Q 2916 3584 3314 3078 
Q 3713 2572 3713 1747 
Q 3713 922 3314 415 
Q 2916 -91 2278 -91 
Q 1894 -91 1617 61 
Q 1341 213 1159 525 
L 1159 0 
L 581 0 
L 581 4863 
L 1159 4863 
L 1159 2969 
z
" transform="scale(0.015625)"/>
       <path id="DejaVuSans-39" d="M 703 97 
L 703 672 
Q 941 559 1184 500 
Q 1428 441 1663 441 
Q 2288 441 2617 861 
Q 2947 1281 2994 2138 
Q 2813 1869 2534 1725 
Q 2256 1581 1919 1581 
Q 1219 1581 811 2004 
Q 403 2428 403 3163 
Q 403 3881 828 4315 
Q 1253 4750 1959 4750 
Q 2769 4750 3195 4129 
Q 3622 3509 3622 2328 
Q 3622 1225 3098 567 
Q 2575 -91 1691 -91 
Q 1453 -91 1209 -44 
Q 966 3 703 97 
z
M 1959 2075 
Q 2384 2075 2632 2365 
Q 2881 2656 2881 3163 
Q 2881 3666 2632 3958 
Q 2384 4250 1959 4250 
Q 1534 4250 1286 3958 
Q 1038 3666 1038 3163 
Q 1038 2656 1286 2365 
Q 1534 2075 1959 2075 
z
" transform="scale(0.015625)"/>
      </defs>
      <use xlink:href="#DejaVuSans-41"/>
      <use xlink:href="#DejaVuSans-6d" x="68.408203"/>
      <use xlink:href="#DejaVuSans-62" x="165.820312"/>
      <use xlink:href="#DejaVuSans-69" x="229.296875"/>
      <use xlink:href="#DejaVuSans-67" x="257.080078"/>
      <use xlink:href="#DejaVuSans-75" x="320.556641"/>
      <use xlink:href="#DejaVuSans-6f" x="383.935547"/>
      <use xlink:href="#DejaVuSans-75" x="445.117188"/>
      <use xlink:href="#DejaVuSans-73" x="508.496094"/>
      <use xlink:href="#DejaVuSans-20" x="560.595703"/>
      <use xlink:href="#DejaVuSans-28" x="592.382812"/>
      <use xlink:href="#DejaVuSans-36" x="631.396484"/>
      <use xlink:href="#DejaVuSans-39" x="695.019531"/>
      <use xlink:href="#DejaVuSans-38" x="758.642578"/>
      <use xlink:href="#DejaVuSans-29" x="822.265625"/>
     </g>
    </g>
   </g>
  </g>
 </g>
 <defs>
  <clipPath id="p0464905847">
   <rect x="54" y="34.56" width="334.8" height="221.76"/>
  </clipPath>
 </defs>
</svg>
